<svg xmlns="http://www.w3.org/2000/svg" xmlns:xlink="http://www.w3.org/1999/xlink" viewBox="0 0 140 100"> <defs> <style>.a{fill: none;}.b{clip-path: url(#a);}.c{fill: #ed1c24;}.d{fill: #d2232a;}.e{fill: #f9a01d;}.f{fill: #6d6e71;}</style> <clipPath id="a"> <rect class="a" x="2.69" y="3.18" width="134.61" height="133.64"/> </clipPath> </defs> <title>Logo-ligo</title> <g class="b"> <path class="c" d="M34.64,70.43v0C35.4,71.75,36.18,73,37,74.18s1.7,2.35,2.63,3.47A48.51,48.51,0,0,0,51.08,87.73L51,87.62a34,34,0,0,1-3.66-4.56c-5.53-8.33-7.69-19.2-6.06-30.36,0.08-.48.14-0.92,0.22-1.37s0.17-.92.25-1.37a54.4,54.4,0,0,1,1.93-7v0l0.5-1.34c0.17-.48.33-0.92,0.53-1.34A54.63,54.63,0,0,1,48,33.45l0.33-.56C49.18,31.52,50,30.21,50.91,29c1-1.43,2.1-2.79,3.21-4.08A50.41,50.41,0,0,1,74.31,10.56l0.22-.08h0c1.31-.47,2.65-0.89,4-1.26s2.68-.61,4-0.81a35.66,35.66,0,0,1,14.51.64c-0.61-.34-1.28-0.67-1.93-1h0l-0.64-.31-0.67-.31c-1.15-.5-2.32-1-3.55-1.4l0,0c-0.7-.25-1.42-0.48-2.18-0.7s-1.51-.45-2.26-0.61A51.52,51.52,0,0,0,73.35,3.18h0A50.29,50.29,0,0,0,55,6.56c-0.89.34-1.79,0.73-2.65,1.12a42.55,42.55,0,0,0-11.74,7.94l0,0c-0.22.2-.42,0.42-0.61,0.62s-0.42.39-.62,0.61a36.53,36.53,0,0,0-2.85,3.44h0v0a5,5,0,0,0-.5.7c-0.14.2-.31,0.42-0.48,0.7a30.37,30.37,0,0,0-2.15,3.8l0,0,0,0.06,0,0,0,0.06v0A32.49,32.49,0,0,0,31.48,29a36.86,36.86,0,0,0-1.42,3.44,42.32,42.32,0,0,0-1.76,20v0c0.06,0.31.11,0.61,0.14,0.89s0.11,0.61.17,0.89c0.28,1.54.64,3.1,1.09,4.67,0.08,0.28.17,0.59,0.28,0.89s0.2,0.67.28,0.92A48.64,48.64,0,0,0,32,65.26c0.11,0.25.22,0.5,0.31,0.73l0.36,0.73c0.56,1.23,1.23,2.46,2,3.72"/> </g> <g class="b"> <path class="d" d="M59.71,89.8v0l0.53,0.34,0.08,0v0A29.34,29.34,0,0,0,71,93.8c9.67,1.29,20.1-2,28.85-8.89,0.36-.31.7-0.56,1-0.81s0.64-.56,1-0.84a50.54,50.54,0,0,0,4.7-4.78l0,0c0.28-.31.56-0.64,0.87-1s0.59-.73.84-1.06a51,51,0,0,0,3.8-5.65l0.14-.22,0-.06c0.78-1.34,1.48-2.68,2.1-4s1.2-2.74,1.7-4.11A49.36,49.36,0,0,0,119,47a37.26,37.26,0,0,1-1.76,4.86c-3.8,8.53-11.1,15.65-20.43,20.18-1,.48-2,0.9-3,1.31s-2,.78-3.1,1.15a55.15,55.15,0,0,1-17.38,2.79h0a56,56,0,0,1-8.47-.64c-0.87-.14-1.76-0.31-2.68-0.48a53.52,53.52,0,0,1-12.69-4.36c-0.25-.11-0.45-0.22-0.59-0.28s-0.31-.17-0.56-0.31c-0.87-.45-1.76-0.95-2.6-1.48,0.08,0.39.2,0.81,0.31,1.2,0.22,0.84.5,1.7,0.81,2.57A32.31,32.31,0,0,0,53.79,85l0,0c0.14,0.14.25,0.28,0.36,0.39s0.28,0.25.42,0.42c0.7,0.67,1.45,1.31,2.24,2,0.17,0.14.33,0.25,0.47,0.36l0.48,0.33c0.64,0.48,1.29.89,1.93,1.31"/> </g> <g class="b"> <path class="e" d="M104.83,59.64c0,0.87,0,1.73-.06,2.6a37.75,37.75,0,0,0,4.72-5c0.64-.84,1.26-1.7,1.85-2.57A28.7,28.7,0,0,0,112.91,52a29.47,29.47,0,0,0,3.41-13.67,26.52,26.52,0,0,0-.45-5c-0.06-.34-0.11-0.67-0.17-0.95a9.3,9.3,0,0,0-.22-0.95v0c0-.14-0.08-0.31-0.14-0.5s-0.08-.33-0.14-0.56a29.84,29.84,0,0,0-1.4-3.83,4.19,4.19,0,0,0-.34-0.73c-0.08-.22-0.19-0.45-0.31-0.7-0.28-.39-0.53-0.75-0.76-1.09a1.74,1.74,0,0,1-.17-0.2,1.37,1.37,0,0,0-.14-0.19,0.1,0.1,0,0,1,0-.06c-0.28-.36-0.56-0.73-0.84-1.06l-0.17-.22a0.91,0.91,0,0,1-.17-0.2,30.36,30.36,0,0,0-5.2-4.81c-0.36-.25-0.75-0.53-1.17-0.78L103.68,16l-0.42-.22a30.28,30.28,0,0,0-19.59-3.6,34.59,34.59,0,0,0-4,.78c-1,.25-2,0.53-2.91.87A49.66,49.66,0,0,1,92.47,26.5c0.95,1.17,1.87,2.38,2.74,3.6s1.71,2.57,2.46,3.91h0a52.54,52.54,0,0,1,6.9,21.47c0.14,1.42.2,2.82,0.23,4.16"/> </g></svg>
